<svg xmlns="http://www.w3.org/2000/svg" xmlns:xlink="http://www.w3.org/1999/xlink" viewBox="0,0,256,256" width="480px" height="480px" fill-rule="nonzero"><g fill="#000000" fill-rule="nonzero" stroke="none" stroke-width="1" stroke-linecap="butt" stroke-linejoin="miter" stroke-miterlimit="10" stroke-dasharray="" stroke-dashoffset="0" font-family="none" font-weight="none" font-size="none" text-anchor="none" style="mix-blend-mode: normal"><g transform="scale(5.33333,5.33333)"><path d="M38,5h-28l-5,7l0.908,28.136c0.051,1.596 1.36,2.864 2.957,2.864h5.135v-9.007c0,-0.62 -0.31,-1.2 -0.826,-1.544l-1.19,-0.793c-0.615,-0.41 -0.984,-1.1 -0.984,-1.839v-0.817v-1v-9.066c0,-0.516 0.418,-0.934 0.934,-0.934h1.066v9c0,0.552 0.448,1 1,1c0.552,0 1,-0.448 1,-1v-9h2v9c0,0.552 0.448,1 1,1c0.552,0 1,-0.448 1,-1v-9h1.066c0.516,0 0.934,0.418 0.934,0.934v9.066v1v0.817c0,0.739 -0.369,1.429 -0.984,1.839l-1.19,0.793c-0.516,0.344 -0.826,0.924 -0.826,1.544v9.007h11v-9.315c0,-0.589 -0.322,-1.126 -0.836,-1.414c-1.883,-1.053 -3.164,-3.222 -3.164,-6.271c0,-4.418 2.686,-9 6,-9c3.314,0 6,4.582 6,9c0,3.049 -1.281,5.218 -3.164,6.272c-0.514,0.287 -0.836,0.824 -0.836,1.413v9.315h6.135c1.597,0 2.906,-1.268 2.958,-2.864l0.907,-28.136zM32,13h-16v-3.997c0,-0.554 0.449,-1.003 1.003,-1.003h13.994c0.554,0 1.003,0.449 1.003,1.003z"></path></g></g></svg>